<svg width="49" height="50" viewBox="0 0 49 50" fill="none" xmlns="http://www.w3.org/2000/svg">
<g clip-path="url(#clip0_1_56)">
<path d="M23.8537 32.4461H21.7915C20.3449 32.4461 19.1691 31.2775 19.1691 29.8397C19.1691 28.4018 20.3449 27.2332 21.7915 27.2332H23.8537" stroke="white" stroke-width="2.55" stroke-miterlimit="10" stroke-linecap="round"/>
<path d="M23.3304 27.2394H22.8379C21.3913 27.2394 20.2156 26.0707 20.2156 24.6329C20.2156 23.1951 21.3913 22.0264 22.8379 22.0264H23.3304" stroke="white" stroke-width="2.55" stroke-miterlimit="10" stroke-linecap="round"/>
<path d="M23.8537 37.6162H22.3147C20.8681 37.6162 19.6924 36.4476 19.6924 35.0098C19.6924 33.5719 20.8681 32.4033 22.3147 32.4033H23.8537" stroke="white" stroke-width="2.55" stroke-miterlimit="10" stroke-linecap="round"/>
<path d="M43.7061 49.2168V46.1392L48.2121 40.9324" stroke="white" stroke-width="2.55" stroke-linecap="round" stroke-linejoin="round"/>
<path d="M48.2121 40.9325V29.9009" stroke="white" stroke-width="2.55" stroke-miterlimit="10" stroke-linecap="round"/>
<path d="M41.41 32.8867H35.5497C33.9615 32.8867 32.6688 31.6079 32.6688 30.0232V29.497C32.6688 27.9185 33.9553 26.6336 35.5497 26.6336H44.4879" stroke="white" stroke-width="2.55" stroke-miterlimit="10" stroke-linecap="round"/>
<path d="M44.7526 26.6336L48.2121 29.7601" stroke="white" stroke-width="2.55" stroke-linecap="round" stroke-linejoin="round"/>
<path d="M26.3098 42.6823L28.6059 46.1392V49.2168" stroke="white" stroke-width="2.55" stroke-linecap="round" stroke-linejoin="round"/>
<path d="M37.107 42.4682H25.9528C24.7955 42.4682 23.8536 41.532 23.8536 40.3818V12.243C23.8536 11.0927 24.7893 10.1566 25.9528 10.1566H41.6808C42.8381 10.1566 43.7799 11.0927 43.7799 12.243V26.1074" stroke="white" stroke-width="2.55" stroke-linecap="round" stroke-linejoin="round"/>
<path d="M41.4099 32.8867L38.5229 35.6216C37.6672 36.2396 37.1071 37.7631 37.1071 38.9011V42.4192" stroke="white" stroke-width="2.55" stroke-miterlimit="10" stroke-linecap="round"/>
<path d="M0.787964 4.1177V0.783142H4.14286" stroke="white" stroke-width="2.55" stroke-linecap="round" stroke-linejoin="round"/>
<path d="M17.5625 4.1177V0.783142H14.2076" stroke="white" stroke-width="2.55" stroke-linecap="round" stroke-linejoin="round"/>
<path d="M0.787964 14.1214V17.456H4.14286" stroke="white" stroke-width="2.55" stroke-linecap="round" stroke-linejoin="round"/>
<path d="M17.5625 14.1214V17.456H14.2076" stroke="white" stroke-width="2.55" stroke-linecap="round" stroke-linejoin="round"/>
<path d="M0.787964 9.11646H17.5625" stroke="white" stroke-width="2.55" stroke-linecap="round" stroke-linejoin="round"/>
<path d="M32.7672 15.1615H34.8602" stroke="white" stroke-width="2.55" stroke-linecap="round" stroke-linejoin="round"/>
</g>
<defs>
<clipPath id="clip0_1_56">
<rect width="49" height="50" fill="white"/>
</clipPath>
</defs>
</svg>
